<svg id="Layer_1" data-name="Layer 1" xmlns="http://www.w3.org/2000/svg" width="16" height="16" viewBox="0 0 16 16"><defs><style>.cls-1{fill:#3d3f4d;}.cls-2{fill:#6d6459;}.cls-3{fill:#897d70;}.cls-4{fill:#8496b7;}.cls-5{fill:#4b4d5e;}.cls-6{fill:#98add4;}.cls-7{fill:#e5e3dc;}</style></defs><title>Zeichenfläche 1</title><path class="cls-1" d="M14.27,10.61h-.09a.62.62,0,0,1-.62-.62.62.62,0,0,1,.62-.62h.09a.49.49,0,0,0,.49-.49V7.12a.49.49,0,0,0-.49-.49h-.09A.62.62,0,0,1,13.56,6a.62.62,0,0,1,.62-.62h.09A1.73,1.73,0,0,1,16,7.12V8.88A1.73,1.73,0,0,1,14.27,10.61Z"/><path class="cls-2" d="M13.62,1.71H10.13a.63.63,0,0,0-.35.11l-.62.43h-4l-.62-.43a.63.63,0,0,0-.35-.11H.63A.6.6,0,0,0,0,2.33V13.67a.6.6,0,0,0,.59.62H4.16a.63.63,0,0,0,.35-.11l.62-.43h4l.62.43a.63.63,0,0,0,.35.11h3.49a.65.65,0,0,0,.65-.62V2.33A.65.65,0,0,0,13.62,1.71Z"/><path class="cls-3" d="M7.16,2.25h-2l-.62-.43a.63.63,0,0,0-.35-.11H.63A.6.6,0,0,0,0,2.33V13.67a.6.6,0,0,0,.59.62H4.16a.63.63,0,0,0,.35-.11l.62-.43h2Z"/><path class="cls-4" d="M13.65,1.71H10.16V14.29h3.49a.62.62,0,0,0,.62-.62V2.33A.62.62,0,0,0,13.65,1.71Z"/><path class="cls-5" d="M5.69,14.1a.64.64,0,0,1-.64-.64V2.66A.64.64,0,0,1,5.69,2a.64.64,0,0,1,.64.64v10.8A.64.64,0,0,1,5.69,14.1Z"/><path class="cls-1" d="M8.63,14.1A.65.65,0,0,1,8,13.46V2.66a.65.65,0,0,1,1.29,0v10.8A.64.64,0,0,1,8.63,14.1Z"/><path class="cls-6" d="M.63,1.71A.63.63,0,0,0,0,2.33V3.66H.42A.61.61,0,0,1,1,4.28a.62.62,0,0,1-.62.62H0v.62H.42a.62.62,0,1,1,0,1.24H0v.62H.42a.62.62,0,1,1,0,1.24H0v.62H.42a.62.62,0,0,1,0,1.24H0v.62H.42a.62.62,0,0,1,.62.62.61.61,0,0,1-.62.62H0v1.33a.63.63,0,0,0,.63.62H4.14V1.71Z"/><path class="cls-7" d="M1,4.28a.61.61,0,0,0-.62-.62H0V4.9H.42A.62.62,0,0,0,1,4.28Z"/><path class="cls-7" d="M1,6.14a.62.62,0,0,0-.62-.62H0V6.76H.42A.62.62,0,0,0,1,6.14Z"/><path class="cls-7" d="M1,8a.62.62,0,0,0-.62-.62H0V8.62H.42A.62.62,0,0,0,1,8Z"/><path class="cls-7" d="M1,9.86a.62.62,0,0,0-.62-.62H0v1.24H.42A.62.62,0,0,0,1,9.86Z"/><path class="cls-7" d="M1,11.72a.62.62,0,0,0-.62-.62H0v1.24H.42A.61.61,0,0,0,1,11.72Z"/></svg>