<svg xmlns="http://www.w3.org/2000/svg" width="16" height="15.44" viewBox="0 0 16 15.44"><defs><style>.cls-1{fill:#ffda2d;}.cls-2{fill:#fdbf00;}.cls-3{fill:#979fef;}.cls-4{fill:#737ee6;}.cls-5{fill:#ff9100;}</style></defs><title>Element 1</title><g id="Ebene_2" data-name="Ebene 2"><g id="Capa_1" data-name="Capa 1"><path class="cls-1" d="M16,5.78a.44.44,0,0,0-.41-.32l-5.21-.34L8.42.26A.45.45,0,0,0,8,0a.46.46,0,0,0-.45.26L5.62,5.12.44,5.46A.49.49,0,0,0,0,5.78a.49.49,0,0,0,.15.51l4,3.34-1.3,5.06a.49.49,0,0,0,.18.49.47.47,0,0,0,.53,0L8,12.41l4.4,2.78a.47.47,0,0,0,.53,0,.49.49,0,0,0,.18-.49l-1.3-5.06,4-3.34A.45.45,0,0,0,16,5.78Z"/><path class="cls-2" d="M15.83,6.29l-4,3.34,1.3,5.06a.49.49,0,0,1-.18.49.47.47,0,0,1-.53,0L8,12.41V0a.45.45,0,0,1,.42.26l1.93,4.86,5.21.34a.44.44,0,0,1,.41.32A.45.45,0,0,1,15.83,6.29Z"/><path class="cls-3" d="M8.47,15A.47.47,0,1,1,8,14.5.47.47,0,0,1,8.47,15Z"/><circle class="cls-4" cx="14.24" cy="10.44" r="0.47"/><circle class="cls-4" cx="11.86" cy="3.1" r="0.47"/><circle class="cls-3" cx="4.14" cy="3.1" r="0.47"/><circle class="cls-3" cx="1.76" cy="10.44" r="0.47"/><path class="cls-4" d="M8.47,15a.47.47,0,0,1-.47.47V14.5A.47.47,0,0,1,8.47,15Z"/><path class="cls-2" d="M11.16,7.35A.48.48,0,0,0,10.75,7l-1.7-.1L8.42,5.33a.49.49,0,0,0-.87,0L6.92,6.92,5.22,7a.48.48,0,0,0-.41.33A.49.49,0,0,0,5,7.86L6.26,8.94l-.42,1.64a.5.5,0,0,0,.18.5.49.49,0,0,0,.53,0L8,10.19l1.42.91a.49.49,0,0,0,.53,0,.5.5,0,0,0,.18-.5L9.71,8.94,11,7.86A.5.5,0,0,0,11.16,7.35Z"/><path class="cls-5" d="M11,7.86,9.71,8.94l.42,1.64a.5.5,0,0,1-.18.5.49.49,0,0,1-.53,0L8,10.19V5.07a.45.45,0,0,1,.42.26l.63,1.59,1.7.1a.48.48,0,0,1,.41.33A.5.5,0,0,1,11,7.86Z"/></g></g></svg>