<svg id="Layer_1" data-name="Layer 1" xmlns="http://www.w3.org/2000/svg" width="16" height="16" viewBox="0 0 16 16"><defs><style>.cls-1{fill:#ff641a;}.cls-2{fill:#f03800;}.cls-3{fill:#64e1dc;}.cls-4{fill:#00c8c8;}.cls-5{fill:#e0f4ff;}.cls-6{fill:#bbdcff;}.cls-7{fill:#61729b;}.cls-8{fill:#47568c;}.cls-9{fill:#ffb64c;}.cls-10{fill:#9cdd05;}.cls-11{fill:#6b0;}</style></defs><title>Zeichenfläche 1</title><circle class="cls-1" cx="8" cy="8" r="8"/><path class="cls-2" d="M13.13,5.9,11.76,4.52,9,7.32,7.24,5.6,2.17,10.67,7.49,16,8,16a8,8,0,0,0,8-8c0-.22,0-.43,0-.65L13.83,5.21Z"/><rect class="cls-3" x="2.17" y="5.21" width="2.75" height="5.46"/><rect class="cls-4" x="11.07" y="5.21" width="2.75" height="5.46"/><path class="cls-5" d="M4.24,4.52v6.83h7.52V4.52Z"/><rect class="cls-6" x="8" y="4.52" width="3.76" height="6.83"/><polygon class="cls-7" points="11.07 5.21 11.07 8.82 9.37 9.84 5.95 9.84 4.93 8.82 4.93 5.21 11.07 5.21"/><polygon class="cls-8" points="11.07 5.21 11.07 8.82 9.37 9.84 8 9.84 8 5.21 11.07 5.21"/><path class="cls-9" d="M7.32,7.94a1,1,0,1,1,1-1A1,1,0,0,1,7.32,7.94Z"/><polygon class="cls-10" points="11.07 8.82 11.07 10.67 4.93 10.67 4.93 8.82 5.95 7.79 7.32 9.16 9.37 7.11 11.07 8.82"/><polygon class="cls-11" points="11.07 8.82 11.07 10.67 8 10.67 8 8.48 9.37 7.11 11.07 8.82"/></svg>